<?xml version="1.0" encoding="iso-8859-1"?>
<!-- Uploaded to: SVG Repo, www.svgrepo.com, Generator: SVG Repo Mixer Tools -->
<svg fill="#000000" height="800px" width="800px" version="1.1" id="Layer_1" xmlns="http://www.w3.org/2000/svg" xmlns:xlink="http://www.w3.org/1999/xlink" 
	 viewBox="0 0 512 512" xml:space="preserve">
<g>
	<g>
		<path d="M248.585,317.502l-26.02-15.746c-13.003,1.662-73.01,9.333-82.716,10.573c-12.03,1.538-23.955-4.409-28.612-14.874
			c-9.615-21.605-34.645-81.484-34.645-81.484l50.116,67.68c4.127,5.573,10.993,8.593,18.036,7.693l82.233-10.512
			c10.62-1.357,18.129-11.067,16.77-21.686c-1.358-10.62-11.075-18.129-21.686-16.77l-70.96,9.072l-48.343-65.284l22.369,19.608
			c0.522-1.824,0.513-1.791,1.347-4.701c4.397-15.345-4.479-31.35-19.824-35.745c-6.938-1.987-14.055-2.913-21.134-2.85
			c-0.025,0-0.05,0-0.075,0c-13.234,0.13-26.332,3.768-37.866,10.771c-17.726,10.762-30.154,28.435-34.286,48.756L1.025,282.337
			c-3.056,15.032,0.802,30.643,10.508,42.521c9.267,11.341,22.933,18.119,37.5,18.711c17.632,0.716,23.294,0.648,47.342,0.453
			l-69.286,58.82c-9.794,8.314-10.993,22.994-2.679,32.787c8.316,9.794,22.994,10.993,32.787,2.679l117.796-100.001
			c4.621-3.923,7.413-9.381,8.06-15.147l45.461,27.511c9.161,5.543,21.078,2.611,26.62-6.548
			C260.677,334.964,257.744,323.046,248.585,317.502z"/>
	</g>
</g>
<g>
	<g>
		<circle cx="125.318" cy="110.948" r="42.786"/>
	</g>
</g>
<g>
	<g>
		<path d="M511.383,369.372c-1.54-13.29-6.032-27.847-17.524-38.571c-19.053-17.779-30.175-16.948-133.509-32.216
			c0,0-5.045-6.83-10.774-14.504c-0.983,1.323-1.975,2.597-2.925,3.753c-7.043,8.569-16.572,17.132-27.089,13.418
			c-12.069-4.263-12.488-20.627-12.626-26.003c-0.112-4.389,0.145-9.916,0.738-14.448l-0.268,0.063
			c-10.072,2.393-17.971,10.199-20.482,20.243l-11.392,6.974c-2.073,1.269-3.499,3.369-3.913,5.765
			c-0.414,2.396,0.223,4.852,1.749,6.744l6.789,8.415c5.539,6.866,14.923,9.292,23.096,5.971c3.519-1.43,7.478-1.329,10.927,0.26
			c3.449,1.59,6.09,4.532,7.292,8.135c4.596,13.77,11.991,34.636,18.742,48.032l-30.151,55.574
			c-3.006,5.541-0.951,12.468,4.59,15.474c5.537,3.005,12.467,0.953,15.474-4.589l29.879-55.073
			c13.592-1.526,36.841-4.348,59.6-7.252c0.768-13.569,7.934-27.731,20.595-37.931c2.566-2.068,6.455-1.759,8.62,0.929
			c2.124,2.636,1.709,6.496-0.927,8.62c-5.052,4.07-9.173,9.055-12.021,14.592c-4.703,11.022-6.275,27.345-0.67,38.166
			c-4.29,7.906-1.245,2.293-14.684,27.064c-3.006,5.54-0.951,12.468,4.589,15.474c5.542,3.006,12.469,0.951,15.476-4.589
			c13.518-24.916,10.557-19.458,18.496-34.091c14.285-4.354,23.865-14.235,28.75-28.221c1.925-3.98,3.206-8.483,3.679-13.295
			c1.702,3.049,3.353,6.814,4.418,10.324c2.643,7.955,3.504,17.786,3.056,26.263c-0.197,4.068-0.713,8.306-1.589,12.446
			c-0.402,1.917,0.608,3.908,2.486,4.677c2.117,0.866,4.535-0.147,5.402-2.263c1.798-4.389,3.189-8.912,4.21-13.312
			C511.666,391.452,512.776,379.511,511.383,369.372z"/>
	</g>
</g>
<g>
	<g>
		<path d="M335.965,254.817c-7.555-2.669-15.201-0.528-16.573,3.357c-1.372,3.883-3.71,30.006,3.845,32.674
			c7.555,2.669,22.143-19.125,23.515-23.01S343.52,257.486,335.965,254.817z"/>
	</g>
</g>
</svg>